<svg xmlns="http://www.w3.org/2000/svg" height="357.76" width="1337"><path d="M119.253 108.937c0 28.885 7.84 108.628 8.253 128.435.413 19.807-2.476 58.08-2.888 73.347-.413 15.268 3.3 46.628 3.3 46.628s-18.568-21.044-48.278-36.312C49.93 305.767 0 300.815 0 300.815s23.933-37.137 39.2-63.134C54.47 211.685 78.815 159.28 87.48 129.57c8.665-29.71 13.204-57.357 19.394-82.94C113.064 21.044 128.194.076 129.57.076c1.377 0 16.506 20.968 22.696 46.551 6.19 25.584 10.728 53.231 19.394 82.941 8.665 29.71 33.011 82.116 48.279 108.112 15.268 25.997 39.2 63.135 39.2 63.135s-49.929 4.951-79.639 20.219c-29.71 15.268-48.28 36.312-48.28 36.312s3.715-31.36 3.302-46.628c-.413-15.268-3.095-53.54-2.682-73.347.413-19.807 8.046-99.55 8.046-128.435 0-28.885-4.126-97.383-10.316-97.383s-10.316 68.498-10.316 97.383z" fill="#00c8ff"/><g style="line-height:1.25" aria-label="Volantis" font-weight="400" font-size="320" font-family="sans-serif" letter-spacing="-30" stroke-width="8"><path d="M351.469 296.824l37.093-242.667h-24.96l-24.613 161.547-23.227-152.187c-1.387-7.973-5.547-9.36-7.28-9.36h-19.067l34.667 225.68c.347 2.08 2.427 16.987 14.907 16.987z" font-size="346.667"/><path d="M490.583 89.437c-14.667 0-26.4 11.734-26.4 26.107v157.52c.293 14.08 12.027 25.813 26.4 25.813h16.133c14.08-.587 25.227-11.733 25.52-25.813v-157.52c0-14.08-11.44-25.52-25.52-26.107zm5.867 190.96c-6.16-.293-11.147-5.28-11.147-11.44v-149.6c0-6.16 4.987-11.146 11.147-11.44h3.226c6.16 0 11.147 4.987 11.147 11.44v149.6c0 6.454-4.987 11.44-11.147 11.44zM639.108 275.997V97.944c0-3.52-2.933-6.16-6.453-6.453h-14.667v205.333h50.454c6.746 0 9.973-2.934 11.44-5.574.88-1.76 4.4-9.973 6.746-15.253zM811.444 296.824H788.27l-18.48-141.387-18.48 141.387h-23.174L759.231 91.49h11.44c8.8 0 10.266 5.573 11.146 11.146zM943.817 296.824V91.49h-21.12v118.213L900.992 102.93c-1.173-5.867-3.227-11.44-14.96-11.44h-9.68v205.333h21.12V182.13l22.587 101.493c.88 4.107 2.64 13.2 14.08 13.2zM1097.33 91.49h-83.894c-3.52 0-6.453 2.934-6.453 6.454v14.373h29.627v180.107c0 1.466.88 4.4 5.866 4.4h14.96v-179.52c.293-2.64 2.347-4.987 5.28-4.987h16.427c6.746 0 9.973-2.933 11.146-5.573zM1162.305 91.49v200.934c.293 1.466 1.173 4.4 6.16 4.4h14.96V99.704c0-3.52-2.347-8.213-8.507-8.213zM1330.892 136.077c2.64-1.466 5.866-4.693 5.866-11.44v-7.92c0-14.08-11.44-26.986-25.52-27.28h-13.2c-14.666 0-26.4 12.907-26.4 27.28v21.12s-.88 13.787 9.387 32.56l25.227 47.227s9.093 15.84 9.093 27.867v23.466c0 6.454-4.987 11.44-11.147 11.44a11.142 11.142 0 01-11.146-11.146v-35.787c-5.28 2.347-13.787 6.16-15.547 6.747-2.64 1.466-5.867 4.693-5.867 11.44v21.12c.294 14.08 11.44 25.52 25.52 26.106h13.2c14.667 0 26.4-11.733 26.4-26.106v-26.107s.88-13.787-9.386-32.56l-25.227-47.52s-9.093-15.547-9.093-27.573v-19.654c0-6.453 4.986-11.44 11.146-11.44 6.16 0 11.147 4.987 11.147 11.44v23.76c5.573-2.346 13.787-6.16 15.547-7.04z" font-size="293.333"/></g></svg>
