<?xml version="1.0" encoding="UTF-8" standalone="no"?>
<svg
   xmlns:dc="http://purl.org/dc/elements/1.1/"
   xmlns:cc="http://creativecommons.org/ns#"
   xmlns:rdf="http://www.w3.org/1999/02/22-rdf-syntax-ns#"
   xmlns:svg="http://www.w3.org/2000/svg"
   xmlns="http://www.w3.org/2000/svg"
   viewBox="0 0 1337 357.76001"
   height="357.76001"
   width="1337"
   id="svg10"
   version="1.1">
  <metadata
     id="metadata16">
    <rdf:RDF>
      <cc:Work
         rdf:about="">
        <dc:format>image/svg+xml</dc:format>
        <dc:type
           rdf:resource="http://purl.org/dc/dcmitype/StillImage" />
        <dc:title></dc:title>
      </cc:Work>
    </rdf:RDF>
  </metadata>
  <defs
     id="defs14" />
  <g
     id="g18">
    <path
       d="m 119.25334,108.9373 c 0,28.8849 7.84019,108.62783 8.25283,128.43461 0.41264,19.80678 -2.47586,58.07926 -2.8885,73.34699 -0.41264,15.26773 3.30113,46.62847 3.30113,46.62847 0,0 -18.56885,-21.04471 -48.279029,-36.31244 C 49.929598,305.76721 0,300.81551 0,300.81551 c 0,0 23.933196,-37.13772 39.200924,-63.13412 15.267728,-25.9964 39.613565,-78.40185 48.279032,-108.11202 8.665468,-29.710175 13.204524,-57.357142 19.394144,-82.940903 6.18962,-25.583761 21.31903,-46.55109725 22.69527,-46.55109725 1.37624,0 16.50565,20.96733625 22.69527,46.55109725 6.18962,25.583761 10.72867,53.230726 19.39414,82.940903 8.66547,29.71017 33.01131,82.11562 48.27903,108.11202 15.26774,25.9964 39.20093,63.13412 39.20093,63.13412 0,0 -49.9296,4.9517 -79.63977,20.21942 -29.71018,15.26773 -48.27903,36.31244 -48.27903,36.31244 0,0 3.71377,-31.36074 3.30113,-46.62847 -0.41264,-15.26773 -3.09482,-53.54021 -2.68218,-73.34699 0.41264,-19.80678 8.04651,-99.54971 8.04651,-128.43461 0,-28.884887 -4.12641,-97.383344 -10.31603,-97.383344 -6.18962,0 -10.31603,68.498457 -10.31603,97.383344 z"
       style="fill:#00c8ff;fill-opacity:1;stroke:none;stroke-width:1px;stroke-linecap:butt;stroke-linejoin:miter;stroke-opacity:1"
       id="path24" />
    <g
       style="font-style:normal;font-weight:normal;font-size:320px;line-height:1.25;font-family:sans-serif;letter-spacing:-30px;fill:#000000;fill-opacity:1;stroke:none;stroke-width:8"
       id="text1364"
       aria-label="Volantis">
      <path
         id="path79"
         style="font-size:346.667px"
         d="M 351.46855,296.82382 388.56192,54.156927 H 363.6019 L 338.98854,215.70375 315.76185,63.516936 c -1.38666,-7.973341 -5.54667,-9.360009 -7.28,-9.360009 h -19.06669 l 34.6667,225.680213 c 0.34667,2.08 2.42667,16.98668 14.90668,16.98668 z" />
      <path
         id="path81"
         style="font-size:293.333px"
         d="m 490.58313,89.437385 c -14.66665,0 -26.39997,11.733325 -26.39997,26.106635 v 157.51983 c 0.29333,14.07998 12.02665,25.8133 26.39997,25.8133 h 16.13331 c 14.07999,-0.58666 25.22664,-11.73332 25.51998,-25.8133 V 115.54402 c 0,-14.07998 -11.43999,-25.519968 -25.51998,-26.106635 z m 5.86666,190.959785 c -6.15999,-0.29333 -11.14666,-5.27999 -11.14666,-11.43998 V 119.35735 c 0,-6.15999 4.98667,-11.14665 11.14666,-11.43999 h 3.22666 c 6.16,0 11.14666,4.98667 11.14666,11.43999 v 149.59984 c 0,6.45332 -4.98666,11.43998 -11.14666,11.43998 z" />
      <path
         id="path83"
         style="font-size:293.333px"
         d="M 639.10833,275.99718 V 97.944043 c 0,-3.519996 -2.93333,-6.159993 -6.45332,-6.453326 H 617.98836 V 296.82382 h 50.45327 c 6.74666,0 9.97333,-2.93333 11.43999,-5.57333 0.88,-1.75999 4.4,-9.97332 6.74666,-15.25331 z" />
      <path
         id="path85"
         style="font-size:293.333px"
         d="M 811.44394,296.82382 H 788.27063 L 769.79065,155.43731 751.31067,296.82382 h -23.17331 l 31.0933,-205.333103 h 11.43999 c 8.79999,0 10.26666,5.573327 11.14666,11.146653 z" />
      <path
         id="path87"
         style="font-size:293.333px"
         d="M 943.81749,296.82382 V 91.490717 H 922.69751 V 209.70392 L 900.99087,102.9307 C 899.81754,97.064044 897.76421,91.490717 886.03089,91.490717 H 876.3509 V 296.82382 h 21.11997 v -114.6932 l 22.58664,101.49322 c 0.88,4.10666 2.64,13.19998 14.07999,13.19998 z" />
      <path
         id="path89"
         style="font-size:293.333px"
         d="m 1097.3294,91.490717 h -83.8932 c -3.52,0 -6.4534,2.93333 -6.4534,6.453326 v 14.373317 h 29.6267 v 180.10647 c 0,1.46666 0.88,4.39999 5.8666,4.39999 h 14.96 v -179.5198 c 0.2933,-2.64 2.3467,-4.98666 5.28,-4.98666 h 16.4267 c 6.7466,0 9.9733,-2.93333 11.1466,-5.57333 z" />
      <path
         id="path91"
         style="font-size:293.333px"
         d="M 1162.3051,91.490717 V 292.42383 c 0.2934,1.46666 1.1734,4.39999 6.16,4.39999 h 14.96 V 99.704041 c 0,-3.519996 -2.3467,-8.213324 -8.5067,-8.213324 z" />
      <path
         id="path93"
         style="font-size:293.333px"
         d="m 1330.8916,136.07733 c 2.64,-1.46666 5.8666,-4.69332 5.8666,-11.43998 v -7.91999 c 0,-14.07999 -11.44,-26.986641 -25.5199,-27.279975 h -13.2 c -14.6667,0 -26.4,12.906655 -26.4,27.279975 v 21.11997 c 0,0 -0.88,13.78665 9.3867,32.55997 l 25.2266,47.22661 c 0,0 9.0933,15.83998 9.0933,27.86664 v 23.46664 c 0,6.45332 -4.9866,11.43998 -11.1466,11.43998 -6.16,0 -11.1467,-4.98666 -11.1467,-11.14665 v -35.78663 c -5.28,2.34667 -13.7866,6.16 -15.5466,6.74666 -2.64,1.46667 -5.8667,4.69333 -5.8667,11.43999 v 21.11998 c 0.2933,14.07998 11.44,25.51997 25.52,26.10663 h 13.2 c 14.6666,0 26.3999,-11.73332 26.3999,-26.10663 v -26.10664 c 0,0 0.88,-13.78665 -9.3866,-32.55997 l -25.2267,-47.51994 c 0,0 -9.0933,-15.54665 -9.0933,-27.57331 v -19.65331 c 0,-6.45332 4.9867,-11.43999 11.1467,-11.43999 6.16,0 11.1466,4.98667 11.1466,11.43999 v 23.75998 c 5.5733,-2.34667 13.7867,-6.16 15.5467,-7.04 z" />
    </g>
  </g>
</svg>
